<?xml version="1.0" encoding="UTF-8" standalone="no"?>
<!-- Created by diasvg.py -->
<svg width="50.750cm" height="26.400cm" viewBox="14.050 17.150 64.800 43.550"
 xmlns="http://www.w3.org/2000/svg"
 xmlns:xlink="http://www.w3.org/1999/xlink">
<rect x="14.100" y="18.200" width="50.650" height="25.300" fill="#FFFFFF" stroke="none" stroke-width="0"/>
<rect x="14.100" y="18.200" width="50.650" height="25.300" fill="none" stroke="#000000" stroke-width="0.100" />
<rect x="14.100" y="17.200" width="13.290" height="1.000" fill="#FFFFFF" stroke="none" stroke-width="0"/>
<rect x="14.100" y="17.200" width="13.290" height="1.000" fill="none" stroke="#000000" stroke-width="0.100" />
<text x="14.200" y="17.950"  fill="#000000" text-anchor="start" font-size="0.80" font-family="monospace" font-style="normal" font-weight="400">
dd Deployment of Vereinsverwaltung</text>
<polygon fill="#FFFFFF" stroke="none" stroke-width="0.100" points="15.600,28.000 16.100,27.500 33.250,27.500 33.250,36.100 32.750,36.600 15.600,36.600 15.600,28.000 "/>
<polygon fill="none" stroke="#000000" stroke-width="0.100"  points="15.600,28.000 16.100,27.500 33.250,27.500 33.250,36.100 32.750,36.600 15.600,36.600 15.600,28.000 "/>
<line x1="15.600" y1="28.000" x2="32.750" y2="28.000" stroke="#000000" stroke-width="0.100" />
<line x1="32.750" y1="28.000" x2="33.250" y2="27.500" stroke="#000000" stroke-width="0.100" />
<line x1="32.750" y1="28.000" x2="32.750" y2="36.600" stroke="#000000" stroke-width="0.100" />
<text x="16.100" y="29.095"  fill="#000000" text-anchor="start" font-size="0.80" font-family="sans" font-style="normal" font-weight="400">
&lt;&lt;device&gt;&gt; :Application</text>
<line x1="16.100" y1="29.245" x2="24.353" y2="29.245" stroke="#000000" stroke-width="0.050" />
<polygon fill="#FFFFFF" stroke="none" stroke-width="0.100" points="40.200,26.600 40.700,26.100 59.250,26.100 59.250,39.800 58.750,40.300 40.200,40.300 40.200,26.600 "/>
<polygon fill="none" stroke="#000000" stroke-width="0.100"  points="40.200,26.600 40.700,26.100 59.250,26.100 59.250,39.800 58.750,40.300 40.200,40.300 40.200,26.600 "/>
<line x1="40.200" y1="26.600" x2="58.750" y2="26.600" stroke="#000000" stroke-width="0.100" />
<line x1="58.750" y1="26.600" x2="59.250" y2="26.100" stroke="#000000" stroke-width="0.100" />
<line x1="58.750" y1="26.600" x2="58.750" y2="40.300" stroke="#000000" stroke-width="0.100" />
<text x="40.700" y="27.695"  fill="#000000" text-anchor="start" font-size="0.80" font-family="sans" font-style="normal" font-weight="400">
&lt;&lt;device&gt;&gt; :ApplicationServer</text>
<line x1="40.700" y1="27.845" x2="51.055" y2="27.845" stroke="#000000" stroke-width="0.050" />
<rect x="26.600" y="31.400" width="3.000" height="3.500" fill="#FFFFFF" stroke="none" stroke-width="0"/>
<rect x="26.600" y="31.400" width="3.000" height="3.500" fill="none" stroke="#000000" stroke-width="0.100" />
<rect x="25.600" y="32.100" width="2.000" height="0.700" fill="#FFFFFF" stroke="none" stroke-width="0"/>
<rect x="25.600" y="32.100" width="2.000" height="0.700" fill="none" stroke="#000000" stroke-width="0.100" />
<rect x="25.600" y="33.500" width="2.000" height="0.700" fill="#FFFFFF" stroke="none" stroke-width="0"/>
<rect x="25.600" y="33.500" width="2.000" height="0.700" fill="none" stroke="#000000" stroke-width="0.100" />
<text x="28.000" y="32.695"  fill="#000000" text-anchor="start" font-size="0.80" font-family="sans" font-style="normal" font-weight="400">
GUI</text>
<rect x="18.900" y="31.650" width="4.740" height="3.500" fill="#FFFFFF" stroke="none" stroke-width="0"/>
<rect x="18.900" y="31.650" width="4.740" height="3.500" fill="none" stroke="#000000" stroke-width="0.100" />
<rect x="17.900" y="32.350" width="2.000" height="0.700" fill="#FFFFFF" stroke="none" stroke-width="0"/>
<rect x="17.900" y="32.350" width="2.000" height="0.700" fill="none" stroke="#000000" stroke-width="0.100" />
<rect x="17.900" y="33.750" width="2.000" height="0.700" fill="#FFFFFF" stroke="none" stroke-width="0"/>
<rect x="17.900" y="33.750" width="2.000" height="0.700" fill="none" stroke="#000000" stroke-width="0.100" />
<text x="20.300" y="32.945"  fill="#000000" text-anchor="start" font-size="0.80" font-family="sans" font-style="normal" font-weight="400">
Observer</text>
<rect x="42.450" y="29.950" width="3.807" height="3.500" fill="#FFFFFF" stroke="none" stroke-width="0"/>
<rect x="42.450" y="29.950" width="3.807" height="3.500" fill="none" stroke="#000000" stroke-width="0.100" />
<rect x="41.450" y="30.650" width="2.000" height="0.700" fill="#FFFFFF" stroke="none" stroke-width="0"/>
<rect x="41.450" y="30.650" width="2.000" height="0.700" fill="none" stroke="#000000" stroke-width="0.100" />
<rect x="41.450" y="32.050" width="2.000" height="0.700" fill="#FFFFFF" stroke="none" stroke-width="0"/>
<rect x="41.450" y="32.050" width="2.000" height="0.700" fill="none" stroke="#000000" stroke-width="0.100" />
<text x="43.850" y="31.245"  fill="#000000" text-anchor="start" font-size="0.80" font-family="sans" font-style="normal" font-weight="400">
Verein</text>
</svg>