<?xml version="1.0" encoding="UTF-8" standalone="no"?>
<!-- Created by diasvg.py -->
<svg width="15.700cm" height="17.850cm" viewBox="29.750 6.450 45.450 24.300"
 xmlns="http://www.w3.org/2000/svg"
 xmlns:xlink="http://www.w3.org/1999/xlink">
<rect x="41.350" y="9.000" width="4.000" height="4.000" fill="#FFFFFF" stroke="none" stroke-width="0"/>
<rect x="41.350" y="9.000" width="4.000" height="4.000" fill="none" stroke="#000000" stroke-width="0.100" />
<rect x="41.350" y="8.000" width="3.280" height="1.000" fill="#FFFFFF" stroke="none" stroke-width="0"/>
<rect x="41.350" y="8.000" width="3.280" height="1.000" fill="none" stroke="#000000" stroke-width="0.100" />
<text x="41.450" y="8.750"  fill="#000000" text-anchor="start" font-size="0.80" font-family="monospace" font-style="normal" font-weight="400">
Observer</text>
<rect x="29.800" y="20.250" width="4.000" height="4.000" fill="#FFFFFF" stroke="none" stroke-width="0"/>
<rect x="29.800" y="20.250" width="4.000" height="4.000" fill="none" stroke="#000000" stroke-width="0.100" />
<rect x="29.800" y="19.250" width="2.000" height="1.000" fill="#FFFFFF" stroke="none" stroke-width="0"/>
<rect x="29.800" y="19.250" width="2.000" height="1.000" fill="none" stroke="#000000" stroke-width="0.100" />
<text x="29.900" y="20.000"  fill="#000000" text-anchor="start" font-size="0.80" font-family="monospace" font-style="normal" font-weight="400">
gui</text>
<rect x="30.250" y="10.800" width="3.095" height="1.000" fill="#FFFFFF" stroke="none" stroke-width="0"/>
<rect x="30.250" y="10.800" width="3.095" height="1.000" fill="none" stroke="#000000" stroke-width="0.100" />
<rect x="30.250" y="9.800" width="2.895" height="1.000" fill="#FFFFFF" stroke="none" stroke-width="0"/>
<rect x="30.250" y="9.800" width="2.895" height="1.000" fill="none" stroke="#000000" stroke-width="0.100" />
<text x="30.350" y="10.550"  fill="#000000" text-anchor="start" font-size="0.80" font-family="monospace" font-style="normal" font-weight="400">
runtime</text>
<rect x="41.400" y="19.700" width="4.000" height="4.000" fill="#FFFFFF" stroke="none" stroke-width="0"/>
<rect x="41.400" y="19.700" width="4.000" height="4.000" fill="none" stroke="#000000" stroke-width="0.100" />
<rect x="41.400" y="18.700" width="2.510" height="1.000" fill="#FFFFFF" stroke="none" stroke-width="0"/>
<rect x="41.400" y="18.700" width="2.510" height="1.000" fill="none" stroke="#000000" stroke-width="0.100" />
<text x="41.500" y="19.450"  fill="#000000" text-anchor="start" font-size="0.80" font-family="monospace" font-style="normal" font-weight="400">
verein</text>
<polyline fill="none" stroke="#000000" stroke-width="0.100" stroke-dasharray="0.40,0.40" points="31.797,11.850 31.797,15.325 31.800,15.325 31.800,18.864 "/>
<polyline fill="none" stroke="#000000" stroke-width="0.100"  points="31.550,18.232 31.800,19.032 32.050,18.232 "/>
<polyline fill="none" stroke="#000000" stroke-width="0.100" stroke-dasharray="0.40,0.40" points="31.797,10.800 31.797,6.500 43.350,6.500 43.350,7.614 "/>
<polyline fill="none" stroke="#000000" stroke-width="0.100"  points="43.100,6.982 43.350,7.782 43.600,6.982 "/>
<polyline fill="none" stroke="#000000" stroke-width="0.100" stroke-dasharray="0.40,0.40" points="31.797,11.850 31.797,15.050 43.400,15.050 43.400,18.314 "/>
<polyline fill="none" stroke="#000000" stroke-width="0.100"  points="43.150,17.682 43.400,18.482 43.650,17.682 "/>
<polyline fill="none" stroke="#000000" stroke-width="0.100" stroke-dasharray="0.40,0.40" points="43.350,13.050 43.350,15.650 43.400,15.650 43.400,18.314 "/>
<polyline fill="none" stroke="#000000" stroke-width="0.100"  points="43.150,17.682 43.400,18.482 43.650,17.682 "/>
</svg>